<?xml version="1.0" encoding="UTF-8"?><svg id="Layer_3" xmlns="http://www.w3.org/2000/svg" viewBox="0 0 653.9 926.66"><defs><style>.cls-1{fill:#fff;}</style></defs><path class="cls-1" d="M123.27,458.1c0-.11,0-.22.01-.33,1.35-49.63,20.82-94.73,52.03-128.94.05-.06.1-.11.16-.17,13.96,13.17,50.69,50.81,50.54,82.07.1,25.28-23.69,46.47-102.74,47.37Z"/><path class="cls-1" d="M176.58,599.22c-.06-.06-.12-.13-.17-.19-31.59-34.07-51.43-79.18-53.09-128.9-.01-.11-.01-.22-.01-.33,82.12,1.15,106.83,22.26,106.73,47.33.15,31.75-39.84,69.99-53.46,82.09Z"/><path class="cls-1" d="M522.35,470.32c.01.11,0,.21-.01.32-3.84,106.87-91.69,192.33-199.5,192.33-53.24,0-101.62-20.85-137.41-54.81-.06-.06-.12-.11-.17-.16,15.88-16.71,146.91-147.94,337.09-137.68Z"/><path class="cls-1" d="M185.38,318.56c.05-.05.1-.1.16-.15,35.78-33.92,84.11-54.72,137.3-54.72,108.22,0,196.33,86.12,199.54,193.55.01.11.02.22.01.33-189.77,10.2-320.63-121.63-337.01-139.01Z"/></svg>